<svg width="18" height="18" viewBox="0 0 18 18" fill="none" xmlns="http://www.w3.org/2000/svg">
<path d="M15.2009 9.82496L15.1926 9.84163C15.2259 9.56663 15.2592 9.28329 15.2592 8.99996C15.2592 8.71663 15.2342 8.44996 15.2009 8.17496L15.2092 8.19163L17.2426 6.59163L15.2176 3.07496L12.8259 4.04163L12.8342 4.04996C12.4009 3.71663 11.9259 3.43329 11.4092 3.21663H11.4176L11.0342 0.666626H6.97591L6.60924 3.22496H6.61758C6.10091 3.44163 5.62591 3.72496 5.19258 4.05829L5.20091 4.04996L2.80091 3.07496L0.767578 6.59163L2.80091 8.19163L2.80924 8.17496C2.77591 8.44996 2.75091 8.71663 2.75091 8.99996C2.75091 9.28329 2.77591 9.56663 2.81758 9.84163L2.80924 9.82496L1.05924 11.2L0.784245 11.4166L2.80924 14.9166L5.20924 13.9583L5.19258 13.925C5.63424 14.2666 6.10924 14.55 6.63424 14.7666H6.60924L6.98424 17.3333H11.0259C11.0259 17.3333 11.0509 17.1833 11.0759 16.9833L11.3926 14.775H11.3842C11.9009 14.5583 12.3842 14.275 12.8259 13.9333L12.8092 13.9666L15.2092 14.925L17.2342 11.425C17.2342 11.425 17.1176 11.325 16.9592 11.2083L15.2009 9.82496ZM9.00091 11.9166C7.39258 11.9166 6.08424 10.6083 6.08424 8.99996C6.08424 7.39163 7.39258 6.08329 9.00091 6.08329C10.6092 6.08329 11.9176 7.39163 11.9176 8.99996C11.9176 10.6083 10.6092 11.9166 9.00091 11.9166Z" fill="#7E57C2"/>
</svg>
